<?xml version="1.0" encoding="utf-8"?>
<!-- Generator: Adobe Illustrator 21.1.0, SVG Export Plug-In . SVG Version: 6.00 Build 0)  -->
<svg version="1.1" xmlns="http://www.w3.org/2000/svg" xmlns:xlink="http://www.w3.org/1999/xlink" x="0px" y="0px"
	 viewBox="0 0 16 16" style="enable-background:new 0 0 16 16;" xml:space="preserve">
<style type="text/css">
	.st0{fill:#FE7F05;}
</style>
<g id="Layer_1">
</g>
<g id="Layer_2">
	<g>
		<path class="st0" d="M10.3,1l0,4.7c0,0-1.1-1.3-2.8-1.2C6.1,4.6,3,5.1,3,9.9c-0.1,3.3,1.6,4.6,3,5c0.7,0.2,1.7,0.2,2.6,0
			c0.5-0.1,0.9-0.4,1.2-0.7l0.5-0.5l0.1,1.2l2.6,0V1L10.3,1z M8,13c-1.4,0-2.5-1.4-2.5-3.2S6.6,6.6,8,6.6s2.5,1.4,2.5,3.2
			S9.3,13,8,13z"/>
	</g>
</g>
</svg>
